<?xml version="1.0" encoding="UTF-8"?>
<svg xmlns="http://www.w3.org/2000/svg" width="81.149" height="18.551" viewBox="0 0 81.149 18.551">
  <path id="Path_1345" data-name="Path 1345" d="M88.066,16.281H82.746V10.786h0a1.933,1.933,0,0,0-1.934-1.934H62.965A1.928,1.928,0,0,0,61.73,9.3a1.928,1.928,0,0,0-.623.661L55.058,21.183,49.6,10.466a1.98,1.98,0,0,0-3.9.132l-5.7,10.585-5.7-11.194a2.112,2.112,0,0,0-1.828-1.137H18.039A1.933,1.933,0,0,0,16.1,10.786h0v5.495H10.785a1.934,1.934,0,1,0,0,3.868H16.1v5.319a1.934,1.934,0,0,0,3.868,0V20.149H29.16a1.934,1.934,0,1,0,0-3.868H19.973V12.72H31.337l6.8,13.356a1.945,1.945,0,0,0,3.746-.264l5.752-10.673L53.21,26.077a1.985,1.985,0,0,0,.18.344,1.931,1.931,0,0,0,3.565-.608L64.012,12.72H78.878v3.561H66a1.933,1.933,0,0,0-1.93,1.846h0v7.23A1.934,1.934,0,0,0,66,27.292H80.172a2.252,2.252,0,0,0,2.574-1.927V20.149h5.319a1.934,1.934,0,1,0,0-3.868m-9.187,7.142H67.845V20.149H78.878Z" transform="translate(-8.851 -8.852)" fill="#fff"></path>
</svg>
