<?xml version="1.0" encoding="UTF-8"?>
<svg xmlns="http://www.w3.org/2000/svg" id="Group_751" data-name="Group 751" width="79" height="60.19" viewBox="0 0 79 60.19">
  <path id="Path_806" data-name="Path 806" d="M44.941,58.669a2.145,2.145,0,0,1,1.013.145c.289.145.723.289,1.012.434l.724-1.881a5.873,5.873,0,0,0-2.749-.579,4.246,4.246,0,0,0-2.315.579,3.084,3.084,0,0,0-1.447,1.591,6.158,6.158,0,0,0-.579,2.46,5.226,5.226,0,0,0,1.013,3.473,4.145,4.145,0,0,0,3.039,1.158,6.235,6.235,0,0,0,2.46-.434V63.589c-.434.145-.724.289-1.158.434a3.186,3.186,0,0,1-1.158.145c-1.3,0-2.026-.868-2.026-2.6a3.286,3.286,0,0,1,.434-1.881C43.928,58.959,44.362,58.669,44.941,58.669Z" transform="translate(-29.604 -31.034)" fill="#fff"></path>
  <path id="Path_807" data-name="Path 807" d="M51.846,63.839a4.006,4.006,0,0,1-1.3-.145,6.055,6.055,0,0,1-1.447-.579v2.17l1.3.434a4.46,4.46,0,0,0,1.447.145,7.329,7.329,0,0,0,1.881-.289,2.681,2.681,0,0,0,1.158-1.013,2.443,2.443,0,0,0,.434-1.447,2.16,2.16,0,0,0-.434-1.447,5.016,5.016,0,0,0-1.591-1.158,11.7,11.7,0,0,1-1.447-.724c-.145-.145-.289-.289-.289-.434a.531.531,0,0,1,.145-.434,1.084,1.084,0,0,1,.724-.145,4.86,4.86,0,0,1,2.17.579l.724-1.881a6.9,6.9,0,0,0-2.894-.579,4.138,4.138,0,0,0-2.46.724A2.333,2.333,0,0,0,49.1,59.5a2.818,2.818,0,0,0,.145,1.158,3.026,3.026,0,0,0,.579.868,2.8,2.8,0,0,0,1.3.724,8.041,8.041,0,0,1,1.158.579c.145.145.289.145.289.289s.145.145.145.289-.145.289-.289.434Z" transform="translate(-25.802 -30.995)" fill="#fff"></path>
  <path id="Path_808" data-name="Path 808" d="M59.646,63.839a4.006,4.006,0,0,1-1.3-.145,6.055,6.055,0,0,1-1.447-.579v2.17l1.3.434a4.46,4.46,0,0,0,1.447.145,7.33,7.33,0,0,0,1.881-.289,2.681,2.681,0,0,0,1.158-1.013,2.443,2.443,0,0,0,.434-1.447,2.16,2.16,0,0,0-.434-1.447,5.017,5.017,0,0,0-1.591-1.158,11.7,11.7,0,0,1-1.447-.724c-.145-.145-.289-.289-.289-.434a.531.531,0,0,1,.145-.434,1.083,1.083,0,0,1,.724-.145,4.86,4.86,0,0,1,2.17.579l.724-1.881a6.9,6.9,0,0,0-2.894-.579,4.138,4.138,0,0,0-2.46.724A2.333,2.333,0,0,0,56.9,59.5a2.822,2.822,0,0,0,.145,1.158,3.026,3.026,0,0,0,.579.868,2.8,2.8,0,0,0,1.3.724,8.028,8.028,0,0,1,1.158.579c.145.145.289.145.289.289s.145.145.145.289-.145.289-.289.434Z" transform="translate(-22.317 -30.995)" fill="#fff"></path>
  <path id="Path_809" data-name="Path 809" d="M72.624,61.141a4.263,4.263,0,0,0-1.158-3.183A4.63,4.63,0,0,0,68.139,56.8H65.1v8.971h2.894a5.279,5.279,0,0,0,3.473-1.158A5.279,5.279,0,0,0,72.624,61.141Zm-3.038,2.025a1.8,1.8,0,0,1-1.591.579h-.579V58.681h.724a1.524,1.524,0,0,1,1.447.579,3.284,3.284,0,0,1,.434,1.881A2.277,2.277,0,0,1,69.585,63.166Z" transform="translate(-18.655 -31.045)" fill="#fff"></path>
  <path id="Path_810" data-name="Path 810" d="M79.632,64.034l.434,1.736h2.6L79.777,56.8H76.594L73.7,65.771h2.6l.434-1.736ZM77.9,59.26a3.259,3.259,0,0,0,.145-1.013A6.519,6.519,0,0,0,78.33,59.4a7.34,7.34,0,0,1,.289,1.3l.434,1.447H77.173A15.678,15.678,0,0,0,77.9,59.26Z" transform="translate(-14.812 -31.045)" fill="#fff"></path>
  <path id="Path_811" data-name="Path 811" d="M84.075,58.244l-9.26-9.115L65.7,58.244H60.491L79.735,39H59.623L40.234,58.244H33v1.3h79v-1.3Z" transform="translate(-33 -39)" fill="#fff"></path>
  <path id="Path_812" data-name="Path 812" d="M33,67.947H60.78l8.971,8.971,9.115-8.971h4.919L64.687,86.9H84.943l9.984-9.984,9.115-8.971H112V66.5H33Z" transform="translate(-33 -26.711)" fill="#fff"></path>
</svg>
