<?xml version="1.0" standalone="no"?>
<!DOCTYPE svg PUBLIC "-//W3C//DTD SVG 20010904//EN"
 "http://www.w3.org/TR/2001/REC-SVG-20010904/DTD/svg10.dtd">
<svg version="1.0" xmlns="http://www.w3.org/2000/svg"
 width="1000.000000pt" height="1000.000000pt" viewBox="0 0 1000.000000 1000.000000"
 preserveAspectRatio="xMidYMid meet">

<g transform="translate(0.000000,1000.000000) scale(0.100000,-0.100000)"
fill="#000000" stroke="none">
<path d="M0 5000 l0 -5000 5000 0 5000 0 0 5000 0 5000 -5000 0 -5000 0 0
-5000z m4665 3070 c64 -21 146 -66 730 -403 66 -38 300 -173 520 -300 220
-127 468 -270 550 -317 83 -48 211 -122 285 -165 309 -178 325 -189 398 -261
95 -95 127 -160 127 -264 0 -64 -5 -85 -32 -140 -17 -36 -50 -84 -73 -108
l-41 -42 -100 60 c-211 127 -349 191 -349 164 0 -4 8 -12 17 -19 15 -11 12
-14 -20 -26 -26 -9 -37 -19 -37 -34 -1 -23 -22 -55 -38 -55 -5 0 -13 -11 -16
-25 -4 -14 -11 -25 -16 -25 -6 0 -10 -8 -10 -18 0 -10 -9 -25 -20 -35 -11 -9
-20 -23 -20 -30 0 -7 -8 -22 -17 -33 -10 -10 -24 -31 -32 -46 -8 -16 -20 -28
-27 -28 -6 0 -15 -11 -18 -25 -4 -14 -11 -25 -16 -25 -6 0 -10 -7 -10 -15 0
-8 -4 -15 -9 -15 -5 0 -16 -18 -25 -40 -9 -22 -23 -40 -31 -40 -9 0 -15 -9
-15 -22 -1 -26 -22 -58 -38 -58 -5 0 -13 -11 -16 -25 -4 -14 -11 -25 -16 -25
-6 0 -10 -9 -10 -20 0 -11 -6 -23 -14 -26 -8 -3 -19 -19 -25 -35 -5 -16 -17
-29 -25 -29 -9 0 -16 -9 -16 -20 0 -24 -46 -96 -66 -104 -8 -3 -14 -12 -14
-21 0 -8 -4 -15 -9 -15 -5 0 -16 -18 -25 -40 -9 -22 -23 -40 -31 -40 -8 0 -15
-9 -15 -20 0 -24 -46 -96 -66 -104 -8 -3 -14 -15 -14 -26 0 -11 -6 -23 -14
-26 -8 -3 -19 -19 -25 -35 -5 -16 -17 -29 -25 -29 -9 0 -16 -9 -16 -20 0 -24
-46 -96 -66 -104 -8 -3 -14 -12 -14 -20 0 -7 -7 -17 -16 -20 -9 -4 -13 -13
-10 -24 4 -13 -5 -28 -31 -51 -29 -26 -34 -34 -22 -42 11 -7 11 -9 -3 -9 -10
0 -22 -9 -29 -21 -7 -14 -17 -19 -30 -16 -10 3 -22 0 -26 -6 -3 -7 -3 -9 1 -5
5 4 14 1 21 -5 10 -10 0 -20 -49 -51 -33 -21 -79 -49 -101 -60 -22 -12 -53
-30 -68 -41 -214 -141 -347 -151 -468 -38 -26 25 -67 77 -90 116 -24 40 -44
74 -46 76 -1 2 -33 -10 -70 -27 -140 -63 -260 -79 -356 -46 -71 24 -141 93
-181 178 -47 99 -54 143 -62 379 l-6 207 185 0 186 0 3 190 3 190 -185 2 -185
3 0 190 0 190 183 3 182 2 0 190 0 190 -187 0 -186 0 6 137 c4 75 7 160 7 189
l0 54 183 2 182 3 0 190 0 190 -182 3 -183 2 0 223 c0 187 3 232 19 287 57
200 168 285 361 276 49 -2 115 -13 155 -26z m1060 -3300 c3 -5 1 -10 -4 -10
-6 0 -11 5 -11 10 0 6 2 10 4 10 3 0 8 -4 11 -10z m5 -24 c0 -2 -20 -16 -45
-29 -25 -14 -45 -21 -45 -16 0 5 17 17 38 28 38 20 52 24 52 17z"/>
<path d="M4790 6078 l0 -72 31 48 30 48 -22 24 c-12 13 -26 24 -31 24 -4 0 -8
-32 -8 -72z"/>
<path d="M4492 5908 l3 -133 119 -3 c89 -2 121 1 128 10 9 15 11 219 2 242 -5
13 -26 16 -130 16 l-125 0 3 -132z"/>
<path d="M4793 5960 c0 -25 2 -35 4 -22 2 12 2 32 0 45 -2 12 -4 2 -4 -23z"/>
</g>
</svg>
